<?xml version="1.0" standalone="no"?>
<!DOCTYPE svg PUBLIC "-//W3C//DTD SVG 20010904//EN"
 "http://www.w3.org/TR/2001/REC-SVG-20010904/DTD/svg10.dtd">
<svg version="1.0" xmlns="http://www.w3.org/2000/svg"
 width="512.000000pt" height="512.000000pt" viewBox="0 0 512.000000 512.000000"
 preserveAspectRatio="xMidYMid meet">
<metadata>
Created by potrace 1.14, written by Peter Selinger 2001-2017
</metadata>
<g transform="translate(0.000000,512.000000) scale(0.100000,-0.100000)"
fill="#000000" stroke="none">
<path d="M495 5097 c-16 -12 -43 -34 -60 -50 -35 -34 -100 -66 -133 -67 -13 0
-45 -9 -72 -21 -50 -21 -76 -56 -86 -117 -13 -72 -28 -105 -78 -166 -30 -36
-57 -75 -61 -86 -9 -29 1 -78 27 -135 19 -42 23 -67 23 -162 0 -130 1 -131
108 -199 50 -33 77 -59 103 -102 55 -87 81 -110 130 -118 l42 -6 -13 -32 c-24
-58 -52 -229 -54 -338 -1 -25 -5 -28 -36 -28 -101 0 -223 -87 -276 -196 -94
-198 30 -440 246 -477 l62 -11 21 -80 c11 -45 32 -121 46 -171 83 -296 118
-422 121 -440 13 -58 65 -227 80 -259 34 -70 102 -125 199 -160 10 -3 248 -6
527 -6 280 0 509 -3 509 -6 0 -4 -8 -21 -19 -38 -50 -84 -53 -216 -8 -309 50
-101 151 -176 259 -191 30 -5 49 -13 53 -24 4 -9 36 -123 71 -252 35 -129 70
-257 78 -285 8 -27 36 -126 62 -218 52 -186 80 -240 148 -286 88 -59 38 -56
946 -56 l835 0 46 23 c84 41 138 103 165 190 10 31 70 246 134 477 l116 419
54 11 c315 64 390 465 118 633 -38 23 -153 56 -167 48 -4 -3 -11 38 -14 92 -6
83 -28 202 -53 290 -4 13 -3 22 2 21 58 -10 113 30 166 123 20 34 46 60 95 91
107 69 108 71 109 201 0 97 4 119 27 173 42 98 37 128 -42 217 -42 49 -52 69
-66 129 -28 122 -52 146 -183 177 -44 10 -130 61 -152 90 -16 21 -59 40 -91
40 -21 0 -70 -13 -111 -29 -67 -27 -81 -29 -160 -24 -110 6 -133 -6 -190 -101
-35 -58 -54 -77 -120 -120 -73 -47 -93 -72 -103 -122 -2 -11 -4 -20 -4 -21 -1
0 -22 5 -48 13 -120 37 -201 47 -355 48 l-158 1 0 50 c0 91 -46 184 -121 248
-47 40 -133 77 -185 79 -31 1 -34 4 -35 32 0 17 -2 45 -4 61 -2 17 -7 54 -10
84 -4 30 -17 96 -31 148 -59 227 -169 420 -339 588 -241 241 -535 369 -875
380 -139 5 -218 -4 -364 -40 -115 -29 -109 -28 -100 -14 3 6 -1 27 -10 48 -13
27 -38 51 -96 89 -63 41 -86 63 -110 104 -65 113 -82 123 -198 114 -83 -7 -93
-5 -165 23 -91 36 -131 38 -172 8z"/>
<path d="M3450 4903 c-110 -28 -184 -93 -237 -209 -24 -52 -27 -71 -27 -164 1
-93 4 -114 30 -180 65 -163 197 -308 404 -442 67 -43 194 -108 213 -108 23 0
148 68 247 135 294 198 443 455 395 686 -48 229 -267 351 -467 260 -53 -24
-129 -98 -156 -151 l-18 -38 -27 48 c-31 54 -89 110 -145 139 -34 18 -56 23
-132 35 -14 2 -50 -3 -80 -11z"/>
<path d="M95 1334 c-16 -9 -43 -34 -60 -57 -27 -37 -30 -50 -29 -112 0 -55 6
-81 26 -120 36 -68 111 -141 207 -199 l80 -48 58 33 c117 66 196 142 236 227
26 55 29 72 24 122 -6 70 -29 112 -77 143 -70 46 -170 28 -213 -39 -12 -19
-24 -34 -27 -33 -3 0 -14 14 -25 32 -38 61 -132 85 -200 51z"/>
<path d="M942 784 c-91 -45 -147 -147 -143 -258 6 -184 155 -366 404 -492 l69
-35 41 21 c222 115 375 272 417 430 49 181 -68 360 -235 360 -27 0 -68 -9 -90
-19 -43 -19 -111 -84 -121 -113 -7 -25 -23 -22 -33 5 -12 29 -67 85 -105 104
-17 9 -57 18 -91 20 -51 4 -68 0 -113 -23z"/>
</g>
</svg>
